<svg width="1234" height="212" viewBox="0 0 1234 212" fill="none" xmlns="http://www.w3.org/2000/svg">
<path d="M87.0344 157.295V95.7839C87.0344 89.9474 86.5086 84.3383 85.457 78.9566C84.4805 73.5749 82.7153 68.7617 80.1614 64.517C77.6827 60.1964 74.3025 56.7855 70.021 54.2842C65.8146 51.7828 60.4815 50.5321 54.0217 50.5321C48.989 50.5321 44.4071 51.4038 40.2758 53.1472C36.2196 54.8147 32.7268 57.3919 29.7974 60.8786C26.8679 64.3654 24.5769 68.7617 22.9244 74.0676C21.347 79.2977 20.5583 85.4753 20.5583 92.6004L7.37579 88.5072C7.37579 76.6069 9.47898 66.4119 13.6854 57.9225C17.9669 49.3572 23.9385 42.8007 31.6001 38.2527C39.3369 33.629 48.4257 31.3172 58.8666 31.3172C66.7536 31.3172 73.4763 32.5678 79.0347 35.0692C84.5932 37.5705 89.2127 40.9057 92.8933 45.0746C96.5739 49.1677 99.4658 53.7915 101.569 58.9458C103.672 64.0243 105.137 69.2165 105.963 74.5224C106.865 79.7525 107.315 84.7173 107.315 89.4168V157.295H87.0344ZM0.277496 157.295V34.5007H18.3049V67.3594H20.5583V157.295H0.277496Z" fill="white"/>
<path d="M188.238 160.705C176.295 160.705 165.854 158.053 156.915 152.747C148.052 147.365 141.141 139.899 136.184 130.348C131.226 120.722 128.747 109.503 128.747 96.6935C128.747 83.2771 131.189 71.6799 136.071 61.9019C140.953 52.0481 147.751 44.4682 156.465 39.1623C165.253 33.7806 175.544 31.0898 187.336 31.0898C199.58 31.0898 209.983 33.9322 218.546 39.6171C227.185 45.302 233.644 53.4125 237.926 63.9485C242.283 74.4845 244.16 87.0292 243.559 101.583H223.279V94.3058C223.053 79.2219 220.011 67.9658 214.152 60.5375C208.293 53.0335 199.58 49.2814 188.012 49.2814C175.619 49.2814 166.192 53.2988 159.732 61.3334C153.272 69.3681 150.042 80.8895 150.042 95.8976C150.042 110.375 153.272 121.593 159.732 129.552C166.192 137.511 175.393 141.491 187.336 141.491C195.374 141.491 202.359 139.633 208.293 135.919C214.227 132.205 218.884 126.861 222.265 119.888L241.531 126.596C236.799 137.435 229.663 145.849 220.124 151.837C210.659 157.749 200.031 160.705 188.238 160.705ZM143.282 101.583V85.3237H233.194V101.583H143.282Z" fill="white"/>
<path d="M314.84 160.478C307.028 160.478 300.305 159.227 294.672 156.726C289.113 154.225 284.494 150.89 280.813 146.721C277.133 142.552 274.241 137.928 272.137 132.849C270.034 127.771 268.532 122.579 267.631 117.273C266.804 111.967 266.391 107.002 266.391 102.378V34.5007H286.672V96.0113C286.672 101.772 287.198 107.343 288.249 112.725C289.301 118.107 291.066 122.958 293.545 127.278C296.099 131.599 299.479 135.01 303.685 137.511C307.967 140.012 313.3 141.263 319.685 141.263C324.717 141.263 329.299 140.391 333.431 138.648C337.562 136.905 341.092 134.328 344.022 130.917C346.951 127.43 349.205 123.034 350.782 117.728C352.359 112.422 353.148 106.244 353.148 99.1949L366.331 103.288C366.331 115.113 364.19 125.308 359.908 133.873C355.702 142.438 349.73 149.032 341.994 153.656C334.332 158.204 325.281 160.478 314.84 160.478ZM355.402 157.295V124.436H353.148V34.5007H373.316V157.295H355.402Z" fill="white"/>
<path d="M472.803 157.295C465.592 158.735 458.456 159.303 451.396 159C444.41 158.773 438.176 157.37 432.692 154.793C427.209 152.14 423.04 148.047 420.186 142.514C417.782 137.663 416.468 132.774 416.242 127.847C416.092 122.844 416.017 117.197 416.017 110.906V0.391296H436.072V109.996C436.072 114.999 436.11 119.282 436.185 122.844C436.335 126.407 437.124 129.476 438.551 132.054C441.255 136.905 445.537 139.747 451.396 140.581C457.33 141.415 464.466 141.187 472.803 139.899V157.295ZM391.342 51.2143V34.5007H472.803V51.2143H391.342Z" fill="white"/>
<path d="M497.508 157.295V34.5007H515.423V64.1759L512.493 60.3101C513.921 56.5202 515.761 53.0335 518.014 49.8499C520.343 46.6664 522.934 44.0513 525.789 42.0048C528.944 39.4276 532.511 37.4568 536.492 36.0925C540.474 34.7281 544.53 33.9322 548.661 33.7048C552.792 33.4016 556.661 33.6669 560.266 34.5007V53.4883C556.06 52.3513 551.44 52.0481 546.408 52.5787C541.375 53.1093 536.718 54.9663 532.436 58.1499C528.53 60.9544 525.488 64.3654 523.31 68.3827C521.207 72.4 519.742 76.7585 518.916 81.458C518.09 86.0817 517.676 90.8191 517.676 95.6702V157.295H497.508Z" fill="white"/>
<path d="M631.2 160.705C619.106 160.705 608.665 157.939 599.877 152.406C591.164 146.872 584.441 139.217 579.709 129.439C574.977 119.66 572.611 108.442 572.611 95.7839C572.611 82.8981 575.014 71.6041 579.822 61.9019C584.629 52.1997 591.427 44.6577 600.215 39.276C609.003 33.8185 619.332 31.0898 631.2 31.0898C643.368 31.0898 653.847 33.8564 662.635 39.3897C671.423 44.8472 678.146 52.465 682.803 62.243C687.535 71.9452 689.902 83.1255 689.902 95.7839C689.902 108.594 687.535 119.888 682.803 129.666C678.071 139.368 671.311 146.986 662.522 152.519C653.734 157.977 643.293 160.705 631.2 160.705ZM631.2 141.491C643.819 141.491 653.208 137.246 659.368 128.756C665.527 120.267 668.607 109.276 668.607 95.7839C668.607 81.9128 665.489 70.8841 659.255 62.6978C653.02 54.4357 643.669 50.3047 631.2 50.3047C622.712 50.3047 615.726 52.2376 610.243 56.1033C604.76 59.9691 600.666 65.3129 597.962 72.1347C595.258 78.9566 593.906 86.8397 593.906 95.7839C593.906 109.579 597.06 120.646 603.37 128.984C609.68 137.322 618.956 141.491 631.2 141.491Z" fill="white"/>
<path d="M758.918 160.592C744.421 160.592 732.515 157.408 723.201 151.041C713.962 144.598 708.291 135.616 706.188 124.095L726.694 120.797C728.346 127.468 732.14 132.774 738.074 136.715C744.008 140.581 751.369 142.514 760.157 142.514C768.495 142.514 775.03 140.77 779.762 137.284C784.494 133.797 786.86 129.06 786.86 123.071C786.86 119.585 786.072 116.78 784.494 114.658C782.917 112.46 779.649 110.413 774.692 108.518C769.809 106.623 762.411 104.349 752.496 101.696C741.754 98.8159 733.304 95.8218 727.145 92.7141C720.985 89.6063 716.591 86.0059 713.962 81.9128C711.333 77.8196 710.019 72.8548 710.019 67.0183C710.019 59.8175 711.972 53.5262 715.877 48.1445C719.783 42.687 725.229 38.4801 732.215 35.524C739.276 32.5678 747.463 31.0898 756.777 31.0898C766.016 31.0898 774.279 32.5678 781.565 35.524C788.851 38.4801 794.71 42.687 799.142 48.1445C803.648 53.5262 806.315 59.8175 807.141 67.0183L786.635 70.7704C785.659 64.1759 782.504 58.9837 777.171 55.1937C771.913 51.4038 765.115 49.3951 756.777 49.1677C748.89 48.8645 742.468 50.2668 737.51 53.3746C732.628 56.4823 730.187 60.6891 730.187 65.995C730.187 68.9512 731.088 71.4904 732.891 73.6128C734.769 75.7352 738.186 77.7438 743.144 79.6388C748.177 81.5338 755.463 83.694 765.002 86.1196C775.743 88.8483 784.194 91.8424 790.353 95.1017C796.588 98.2853 801.019 102.075 803.648 106.472C806.277 110.792 807.592 116.136 807.592 122.503C807.592 134.328 803.273 143.651 794.635 150.473C785.997 157.219 774.091 160.592 758.918 160.592Z" fill="white"/>
<path d="M853.954 157.295L816.773 34.387L836.716 34.5007L863.869 124.322L891.249 34.5007H908.938L936.204 124.322L963.471 34.5007H983.301L946.119 157.295H929.444L900.037 63.9485L870.63 157.295H853.954Z" fill="white"/>
<path d="M1031.42 160.705C1022.33 160.705 1014.7 159.038 1008.54 155.703C1002.46 152.292 997.841 147.82 994.686 142.286C991.606 136.753 990.067 130.689 990.067 124.095C990.067 117.652 991.268 112.081 993.672 107.381C996.151 102.606 999.606 98.6643 1004.04 95.5565C1008.47 92.373 1013.77 89.8716 1019.92 88.0525C1025.71 86.4607 1032.17 85.0963 1039.3 83.9593C1046.51 82.7466 1053.8 81.6475 1061.16 80.6621C1068.52 79.6767 1075.4 78.7292 1081.78 77.8196L1074.57 82.0265C1074.8 71.1115 1072.62 63.0389 1068.04 57.8088C1063.53 52.5787 1055.72 49.9636 1044.6 49.9636C1037.24 49.9636 1030.78 51.6691 1025.22 55.08C1019.74 58.4152 1015.87 63.8727 1013.61 71.4526L994.573 65.6539C997.503 54.8905 1003.17 46.439 1011.59 40.2993C1020 34.1596 1031.08 31.0898 1044.82 31.0898C1055.87 31.0898 1065.33 33.0984 1073.22 37.1158C1081.18 41.0573 1086.89 47.0454 1090.34 55.08C1092.07 58.87 1093.16 63.001 1093.61 67.4731C1094.06 71.8694 1094.29 76.4932 1094.29 81.3443V157.295H1076.49V127.847L1080.65 130.576C1076.07 140.505 1069.65 148.009 1061.39 153.088C1053.2 158.166 1043.21 160.705 1031.42 160.705ZM1034.46 143.764C1041.67 143.764 1047.9 142.476 1053.16 139.899C1058.5 137.246 1062.78 133.797 1066.01 129.552C1069.24 125.232 1071.34 120.532 1072.32 115.454C1073.44 111.664 1074.04 107.457 1074.12 102.833C1074.27 98.1337 1074.34 94.5332 1074.34 92.0319L1081.33 95.1017C1074.8 96.0113 1068.37 96.883 1062.06 97.7168C1055.75 98.5506 1049.78 99.4602 1044.15 100.446C1038.52 101.355 1033.44 102.454 1028.94 103.743C1025.63 104.804 1022.52 106.168 1019.59 107.836C1016.73 109.503 1014.4 111.664 1012.6 114.317C1010.87 116.894 1010.01 120.115 1010.01 123.981C1010.01 127.316 1010.84 130.5 1012.49 133.532C1014.22 136.564 1016.84 139.027 1020.38 140.922C1023.98 142.817 1028.68 143.764 1034.46 143.764Z" fill="white"/>
<path d="M1179.47 160.705C1168.05 160.705 1158.43 157.863 1150.62 152.178C1142.81 146.417 1136.88 138.648 1132.82 128.87C1128.84 119.016 1126.85 107.988 1126.85 95.7839C1126.85 83.4287 1128.84 72.3621 1132.82 62.5841C1136.88 52.8061 1142.81 45.1125 1150.62 39.5034C1158.51 33.8943 1168.16 31.0898 1179.58 31.0898C1190.85 31.0898 1200.54 33.9322 1208.65 39.6171C1216.84 45.2262 1223.11 52.9198 1227.46 62.6978C1231.82 72.4758 1234 83.5045 1234 95.7839C1234 108.063 1231.82 119.092 1227.46 128.87C1223.11 138.648 1216.84 146.417 1208.65 152.178C1200.54 157.863 1190.81 160.705 1179.47 160.705ZM1123.47 211.87V34.5007H1141.38V124.891H1143.64V211.87H1123.47ZM1176.99 142.173C1185.03 142.173 1191.67 140.126 1196.93 136.033C1202.19 131.94 1206.13 126.407 1208.76 119.433C1211.39 112.384 1212.7 104.501 1212.7 95.7839C1212.7 87.1429 1211.39 79.3356 1208.76 72.3621C1206.21 65.3887 1202.23 59.8554 1196.82 55.7622C1191.49 51.6691 1184.69 49.6225 1176.42 49.6225C1168.54 49.6225 1162 51.5933 1156.82 55.5348C1151.64 59.4006 1147.77 64.8202 1145.21 71.7936C1142.66 78.6913 1141.38 86.6881 1141.38 95.7839C1141.38 104.728 1142.62 112.725 1145.1 119.774C1147.66 126.748 1151.56 132.243 1156.82 136.26C1162.08 140.202 1168.8 142.173 1176.99 142.173Z" fill="white"/>
</svg>
