<svg width="157" height="153" viewBox="0 0 157 153" fill="none" xmlns="http://www.w3.org/2000/svg">
<path d="M56.7768 70.172C60.0525 70.172 62.7079 67.5166 62.7079 64.2409C62.7079 60.9652 60.0525 58.3098 56.7768 58.3098C53.5011 58.3098 50.8457 60.9652 50.8457 64.2409C50.8457 67.5166 53.5011 70.172 56.7768 70.172Z" fill="white"/>
<path d="M78.5982 57.6864C81.8739 57.6864 84.5293 55.031 84.5293 51.7553C84.5293 48.4796 81.8739 45.8242 78.5982 45.8242C75.3225 45.8242 72.6671 48.4796 72.6671 51.7553C72.6671 55.031 75.3225 57.6864 78.5982 57.6864Z" fill="white"/>
<path d="M100.568 70.2423C103.844 70.2423 106.499 67.5869 106.499 64.3112C106.499 61.0355 103.844 58.3801 100.568 58.3801C97.2923 58.3801 94.6369 61.0355 94.6369 64.3112C94.6369 67.5869 97.2923 70.2423 100.568 70.2423Z" fill="white"/>
<path d="M100.568 95.6113C103.844 95.6113 106.499 92.9559 106.499 89.6802C106.499 86.4045 103.844 83.7491 100.568 83.7491C97.2923 83.7491 94.6369 86.4045 94.6369 89.6802C94.6369 92.9559 97.2923 95.6113 100.568 95.6113Z" fill="white"/>
<path d="M78.5676 108.274C81.8433 108.274 84.4987 105.619 84.4987 102.343C84.4987 99.0675 81.8433 96.4121 78.5676 96.4121C75.2919 96.4121 72.6365 99.0675 72.6365 102.343C72.6365 105.619 75.2919 108.274 78.5676 108.274Z" fill="white"/>
<path d="M56.6558 95.6936C59.9315 95.6936 62.5869 93.0382 62.5869 89.7625C62.5869 86.4868 59.9315 83.8314 56.6558 83.8314C53.3801 83.8314 50.7247 86.4868 50.7247 89.7625C50.7247 93.0382 53.3801 95.6936 56.6558 95.6936Z" fill="white"/>
<path d="M35.8641 58.7777C38.7775 58.7777 41.1393 56.4159 41.1393 53.5025C41.1393 50.5891 38.7775 48.2273 35.8641 48.2273C32.9507 48.2273 30.5889 50.5891 30.5889 53.5025C30.5889 56.4159 32.9507 58.7777 35.8641 58.7777Z" fill="white"/>
<path d="M121.13 58.7777C124.043 58.7777 126.405 56.4159 126.405 53.5025C126.405 50.5891 124.043 48.2273 121.13 48.2273C118.216 48.2273 115.855 50.5891 115.855 53.5025C115.855 56.4159 118.216 58.7777 121.13 58.7777Z" fill="white"/>
<path d="M121.13 107.869C124.043 107.869 126.405 105.508 126.405 102.594C126.405 99.6809 124.043 97.3191 121.13 97.3191C118.216 97.3191 115.855 99.6809 115.855 102.594C115.855 105.508 118.216 107.869 121.13 107.869Z" fill="white"/>
<path d="M35.9751 107.731C38.8885 107.731 41.2503 105.369 41.2503 102.456C41.2503 99.5424 38.8885 97.1806 35.9751 97.1806C33.0617 97.1806 30.6999 99.5424 30.6999 102.456C30.6999 105.369 33.0617 107.731 35.9751 107.731Z" fill="white"/>
<path d="M78.5983 34.0487C81.5117 34.0487 83.8735 31.6869 83.8735 28.7735C83.8735 25.8601 81.5117 23.4983 78.5983 23.4983C75.6849 23.4983 73.3231 25.8601 73.3231 28.7735C73.3231 31.6869 75.6849 34.0487 78.5983 34.0487Z" fill="white"/>
<path d="M78.5983 132.304C81.5117 132.304 83.8735 129.942 83.8735 127.029C83.8735 124.115 81.5117 121.753 78.5983 121.753C75.6849 121.753 73.3231 124.115 73.3231 127.029C73.3231 129.942 75.6849 132.304 78.5983 132.304Z" fill="white"/>
<path d="M115.196 80.0662C117.045 80.0662 118.544 78.567 118.544 76.7176C118.544 74.8682 117.045 73.369 115.196 73.369C113.346 73.369 111.847 74.8682 111.847 76.7176C111.847 78.567 113.346 80.0662 115.196 80.0662Z" fill="white"/>
<path d="M97.8072 111.603C99.6566 111.603 101.156 110.103 101.156 108.254C101.156 106.405 99.6566 104.905 97.8072 104.905C95.9578 104.905 94.4586 106.405 94.4586 108.254C94.4586 110.103 95.9578 111.603 97.8072 111.603Z" fill="white"/>
<path d="M60.6138 111.472C62.4632 111.472 63.9624 109.973 63.9624 108.124C63.9624 106.274 62.4632 104.775 60.6138 104.775C58.7644 104.775 57.2652 106.274 57.2652 108.124C57.2652 109.973 58.7644 111.472 60.6138 111.472Z" fill="white"/>
<path d="M41.4863 79.8503C43.3357 79.8503 44.8349 78.3511 44.8349 76.5017C44.8349 74.6523 43.3357 73.1531 41.4863 73.1531C39.6369 73.1531 38.1377 74.6523 38.1377 76.5017C38.1377 78.3511 39.6369 79.8503 41.4863 79.8503Z" fill="white"/>
<path d="M60.691 48.29C62.5404 48.29 64.0396 46.7908 64.0396 44.9414C64.0396 43.092 62.5404 41.5928 60.691 41.5928C58.8416 41.5928 57.3424 43.092 57.3424 44.9414C57.3424 46.7908 58.8416 48.29 60.691 48.29Z" fill="white"/>
<path d="M97.7244 48.4903C99.5738 48.4903 101.073 46.9911 101.073 45.1417C101.073 43.2923 99.5738 41.7931 97.7244 41.7931C95.875 41.7931 94.3758 43.2923 94.3758 45.1417C94.3758 46.9911 95.875 48.4903 97.7244 48.4903Z" fill="white"/>
<path d="M78.7262 97.13H78.5976V96.5285H78.7256C83.8925 96.5319 88.8492 94.4825 92.5051 90.8313C96.161 87.1801 98.2168 82.2262 98.2201 77.0592C98.2235 71.8923 96.1742 66.9357 92.523 63.2798C88.8718 59.6238 83.9178 57.5681 78.7509 57.5647L78.7521 56.9632C84.0785 56.9666 89.1855 59.0859 92.9494 62.8546C96.7134 66.6234 98.826 71.7331 98.8225 77.0595C98.8191 82.386 96.6999 87.4929 92.9311 91.2569C89.1623 95.0208 84.0526 97.1334 78.7262 97.13Z" fill="white"/>
<path d="M100.461 59.0937C97.0374 59.033 93.6819 58.1275 90.6925 56.4579C87.7031 54.7882 85.1724 52.406 83.3253 49.5229L83.8235 49.1852C85.6195 51.9889 88.0802 54.3055 90.9869 55.9292C93.8937 57.553 97.1566 58.4336 100.486 58.4928L100.461 59.0937Z" fill="white"/>
<path d="M83.8223 104.85L83.3218 104.516C87.4731 98.3027 92.596 95.3264 99.9318 94.8674L99.9694 95.4674C92.8392 95.9143 87.859 98.808 83.8223 104.85Z" fill="white"/>
<path d="M82.4462 124.553C79.3605 118.566 79.6653 111.109 83.2627 104.607L83.789 104.898C80.289 111.224 79.9872 118.469 82.9807 124.277L82.4462 124.553Z" fill="white"/>
<path d="M74.5933 124.848L74.0762 124.54C77.1819 119.322 78.3862 111.581 74.0745 106.048L74.5491 105.678C79.0354 111.435 77.8042 119.454 74.5933 124.848Z" fill="white"/>
<path d="M105.099 87.0837C101.095 80.6309 102.183 72.2831 104.887 67.2577L105.417 67.5426C102.792 72.4205 101.732 80.5169 105.61 86.7665L105.099 87.0837Z" fill="white"/>
<path d="M74.5826 106.075L82.7254 106.129C82.7254 106.129 77.9318 114.908 82.4554 123.924L74.7439 123.87C74.7439 123.87 80.9471 114.458 74.5826 106.075Z" fill="white"/>
<path d="M79.8044 97.2L84.2853 103.938C84.2853 103.938 87.9877 96.2584 98.912 95.2529L104.328 85.4617C104.328 85.4617 100.928 79.6431 104.261 67.9625C106.156 61.3247 99.3122 58.72 99.3122 58.72C96.3886 58.6754 93.5177 57.9354 90.9368 56.5612C88.3559 55.1871 86.1392 53.2183 84.47 50.8177C83.4225 49.2798 80.518 57.1757 80.518 57.1757C83.7683 57.4192 86.9066 58.4692 89.6489 60.2309C92.3912 61.9926 94.651 64.4103 96.2237 67.2652C101.421 76.8202 95.843 87.4918 95.843 87.4918C95.843 87.4918 91.6762 95.3582 79.8044 97.2Z" fill="white"/>
</svg>
