<svg width="226" height="256" viewBox="0 0 226 256" fill="none" xmlns="http://www.w3.org/2000/svg">
<path fill-rule="evenodd" clip-rule="evenodd" d="M125.238 59.9737C122.9 55.5462 118.251 52.5289 112.898 52.5289C105.195 52.5289 98.9507 58.7767 98.9507 66.4837C98.9507 74.1908 105.195 80.4386 112.898 80.4386C113.107 80.4386 113.314 80.434 113.52 80.4249C171.428 80.7188 169.234 171.553 112.826 171.553C105.123 171.553 98.8787 177.801 98.8787 185.508C98.8787 189.583 100.624 193.25 103.409 195.801C111.616 207.87 109.595 223.787 103.539 235.442C101.642 237.622 100.493 240.471 100.493 243.588C100.493 250.443 106.047 256 112.898 256C119.75 256 125.304 250.443 125.304 243.588C125.304 240.636 124.273 237.924 122.552 235.793C116.618 223.209 117.05 207.992 123.679 194.275C124.628 193.099 125.391 191.766 125.922 190.321C135.093 177.117 148.555 169.669 164.562 169.669C172.265 169.669 178.51 163.421 178.51 155.714C178.51 152.35 177.32 149.264 175.338 146.854C171.06 139.376 169.403 130.105 170.053 121.487C170.117 120.734 170.194 119.964 170.285 119.176C170.883 114.404 172.203 109.908 174.188 106.124C175.725 103.195 178.51 99.9981 178.51 96.0256C178.51 88.3185 172.265 82.0707 164.562 82.0707L164.461 82.0711C156.632 81.9318 148.867 80.1248 142.031 76.3044C135.224 72.4998 129.457 66.5379 125.238 59.9737ZM172.746 144.413C172.713 144.333 172.678 144.25 172.642 144.163C172.678 144.248 172.714 144.332 172.751 144.417L172.746 144.413Z" fill="#F97316"/>
<path d="M75.246 155.908C75.246 163.615 69.0015 169.862 61.2985 169.862C53.5955 169.862 47.351 163.615 47.351 155.908C47.351 148.201 53.5955 141.953 61.2985 141.953C69.0015 141.953 75.246 148.201 75.246 155.908Z" fill="#F97316"/>
<path d="M33.5008 124.708C33.5008 129.059 29.9753 132.586 25.6263 132.586C21.2773 132.586 17.7517 129.059 17.7517 124.708C17.7517 120.356 21.2773 116.829 25.6263 116.829C29.9753 116.829 33.5008 120.356 33.5008 124.708Z" fill="#F97316"/>
<path d="M75.5308 95.8601C75.5308 103.567 69.2863 109.815 61.5833 109.815C53.8803 109.815 47.6358 103.567 47.6358 95.8601C47.6358 88.1531 53.8803 81.9053 61.5833 81.9053C69.2863 81.9053 75.5308 88.1531 75.5308 95.8601Z" fill="#F97316"/>
<path d="M70.7876 58.3304C75.1366 58.3304 78.6621 54.803 78.6621 50.4517C78.6621 46.1005 75.1366 42.5731 70.7876 42.5731C66.4386 42.5731 62.9131 46.1005 62.9131 50.4517C62.9131 54.803 66.4386 58.3304 70.7876 58.3304Z" fill="#F97316"/>
<path d="M12.4051 83.0061C19.2563 83.0061 24.8102 77.4493 24.8102 70.5945C24.8102 63.7398 19.2563 58.1829 12.4051 58.1829C5.55396 58.1829 0 63.7398 0 70.5945C0 77.4493 5.55396 83.0061 12.4051 83.0061Z" fill="#F97316"/>
<path d="M25.0714 185.773C25.0714 192.628 19.5175 198.185 12.6663 198.185C5.81518 198.185 0.261224 192.628 0.261224 185.773C0.261224 178.918 5.81518 173.361 12.6663 173.361C19.5175 173.361 25.0714 178.918 25.0714 185.773Z" fill="#F97316"/>
<path d="M70.6062 206.987C74.9552 206.987 78.4807 203.46 78.4807 199.109C78.4807 194.757 74.9552 191.23 70.6062 191.23C66.2572 191.23 62.7317 194.757 62.7317 199.109C62.7317 203.46 66.2572 206.987 70.6062 206.987Z" fill="#F97316"/>
<path d="M165.944 199.415C165.944 203.766 162.419 207.293 158.07 207.293C153.721 207.293 150.195 203.766 150.195 199.415C150.195 195.063 153.721 191.536 158.07 191.536C162.419 191.536 165.944 195.063 165.944 199.415Z" fill="#F97316"/>
<path d="M212.915 198.51C219.767 198.51 225.321 192.954 225.321 186.099C225.321 179.244 219.767 173.687 212.915 173.687C206.064 173.687 200.51 179.244 200.51 186.099C200.51 192.954 206.064 198.51 212.915 198.51Z" fill="#F97316"/>
<path d="M198.96 133.094C203.309 133.094 206.835 129.567 206.835 125.215C206.835 120.864 203.309 117.337 198.96 117.337C194.611 117.337 191.086 120.864 191.086 125.215C191.086 129.567 194.611 133.094 198.96 133.094Z" fill="#F97316"/>
<path d="M225.321 70.5945C225.321 77.4493 219.767 83.0061 212.915 83.0061C206.064 83.0061 200.51 77.4493 200.51 70.5945C200.51 63.7398 206.064 58.1829 212.915 58.1829C219.767 58.1829 225.321 63.7398 225.321 70.5945Z" fill="#F97316"/>
<path d="M165.75 50.9228C165.75 55.274 162.224 58.8014 157.875 58.8014C153.526 58.8014 150.001 55.274 150.001 50.9228C150.001 46.5715 153.526 43.0441 157.875 43.0441C162.224 43.0441 165.75 46.5715 165.75 50.9228Z" fill="#F97316"/>
<path d="M125.303 12.4116C125.303 19.2663 119.749 24.8232 112.898 24.8232C106.047 24.8232 100.493 19.2663 100.493 12.4116C100.493 5.55686 106.047 0 112.898 0C119.749 0 125.303 5.55686 125.303 12.4116Z" fill="#F97316"/>
</svg>
